<svg xmlns="http://www.w3.org/2000/svg" xmlns:xlink="http://www.w3.org/1999/xlink" width="32.461" height="32.461" viewBox="0 0 32.461 32.461"><defs><linearGradient id="a" x1="0.332" y1="0.141" x2="0.585" y2="0.682" gradientUnits="objectBoundingBox"><stop offset="0" stop-color="#00c3ff"/><stop offset="1" stop-color="#00b0ed"/></linearGradient><linearGradient id="b" x1="0.738" y1="0.628" x2="-0.899" y2="-0.25" gradientUnits="objectBoundingBox"><stop offset="0" stop-color="#00b0ed" stop-opacity="0"/><stop offset="1" stop-color="#00a2ce"/></linearGradient><linearGradient id="c" x1="0.5" y1="0.27" x2="0.5" y2="0.926" xlink:href="#b"/><linearGradient id="d" x1="0.946" y1="0.922" x2="0.342" y2="0.273" xlink:href="#b"/></defs><g transform="translate(0 0)"><path d="M26.655,31.905a98.048,98.048,0,0,1-20.849,0,5.911,5.911,0,0,1-5.25-5.251,98.045,98.045,0,0,1,0-20.849A5.911,5.911,0,0,1,5.806.555a98.045,98.045,0,0,1,20.849,0,5.911,5.911,0,0,1,5.251,5.25,98.045,98.045,0,0,1,0,20.849,5.911,5.911,0,0,1-5.25,5.251Zm0,0" transform="translate(0)" fill="url(#a)"/><path d="M57.146,33.987a5.245,5.245,0,0,0-4.659-4.659,87.036,87.036,0,0,0-18.5,0,5.246,5.246,0,0,0-4.659,4.659,87.034,87.034,0,0,0,0,18.5,5.245,5.245,0,0,0,4.659,4.659,87,87,0,0,0,18.5,0,5.245,5.245,0,0,0,4.659-4.659,87,87,0,0,0,0-18.5Zm0,0" transform="translate(-27.006 -27.007)" fill="url(#b)"/><path d="M7.672,409.8q.033.337.069.673a5.911,5.911,0,0,0,5.251,5.25,98.05,98.05,0,0,0,20.849,0,5.911,5.911,0,0,0,5.25-5.25q.036-.337.07-.673Zm0,0" transform="translate(-7.186 -383.823)" fill="url(#c)"/><path d="M123.605,133.753l-6.738-6.738a8.041,8.041,0,0,1-1.922.8,5.5,5.5,0,0,1-.677.139,4.184,4.184,0,0,0-7.179,2.922c0,.083,0,.166.008.248a4.035,4.035,0,0,0,.076.589,11.461,11.461,0,0,1-7.09-2.835h0l-1.41-1.41a4.163,4.163,0,0,0,.778,5.079,4.639,4.639,0,0,0,.353.352l.031.034a4.1,4.1,0,0,1-1.835-.51,4.06,4.06,0,0,0,1.359,3.064l1.187,1.2a2.31,2.31,0,0,1-1.04-.1,4,4,0,0,0,1.2,1.882l1.663,1.672a8.611,8.611,0,0,1-5.044,1.123l10.09,9.859a98.144,98.144,0,0,0,10.4-.556,5.911,5.911,0,0,0,5.251-5.25,98.2,98.2,0,0,0,.549-11.565Zm0,0" transform="translate(-91.151 -118.664)" fill="url(#d)"/><path d="M117.438,128.64a7.569,7.569,0,0,1-2.159.6l-.009-.051a4.016,4.016,0,0,0,1.592-2.174,8.041,8.041,0,0,1-1.922.8,5.549,5.549,0,0,1-.677.139,4.184,4.184,0,0,0-7.179,2.922c0,.083,0,.166.008.248a4.034,4.034,0,0,0,.076.589,11.7,11.7,0,0,1-8.5-4.246,4.138,4.138,0,0,0,1.269,5.471,4.363,4.363,0,0,1-1.943-.515,4.185,4.185,0,0,0,3.409,4.123,3.959,3.959,0,0,1-1.9.04,4.035,4.035,0,0,0,3.806,2.894,8.337,8.337,0,0,1-5.989,1.783,11.824,11.824,0,0,0,18.137-10q0-.122,0-.244c0-.048,0-.1,0-.145s0-.068,0-.1a7.4,7.4,0,0,0,1.986-2.138Zm0,0" transform="translate(-91.147 -118.663)" fill="#fff"/></g></svg>