<svg xmlns="http://www.w3.org/2000/svg" width="17.369" height="16.262" viewBox="0 0 17.369 16.262"><g transform="translate(0 -0.554)"><path d="M0,14.249l9.923,2.567V.554L0,3.122ZM5.062,9.433A2.881,2.881,0,0,1,3.243,6.706,2.524,2.524,0,0,1,5.751,3.925a3.121,3.121,0,0,1,1.692.466L7.108,6.076a2.463,2.463,0,0,0-1.387-.438.869.869,0,0,0-.964.891c0,.589.374.849,1.229,1.3a2.835,2.835,0,0,1,1.721,2.754,2.589,2.589,0,0,1-2.674,2.862,3.357,3.357,0,0,1-1.879-.561l.305-1.726a3.016,3.016,0,0,0,1.663.574.94.94,0,0,0,1.052-1C6.173,10.159,5.858,9.829,5.062,9.433Z" fill="#0072c6"/><path d="M15.2,6.208a2.14,2.14,0,0,0-.988.249L12.9,5.139a2.141,2.141,0,0,0-1.935-2.9V6.552a2.21,2.21,0,0,0,.654-.131L13.1,7.9a2.085,2.085,0,0,0,.467,1.872l-1.282,1.282a1.968,1.968,0,0,0-1.317-.219V15.1a2.056,2.056,0,0,0,.324.032,2.163,2.163,0,0,0,2.163-2.163A2.118,2.118,0,0,0,13.4,12.5l1.978-1.978A2.159,2.159,0,0,0,15.2,6.208Z" fill="#0072c6"/></g></svg>